<svg xmlns="http://www.w3.org/2000/svg" xmlns:xlink="http://www.w3.org/1999/xlink" preserveAspectRatio="xMidYMid" width="32" height="33" viewBox="0 0 32 33">
  <defs>
    <style>
      .cls-1 {
        fill: #fff;
        stroke: #000;
        stroke-linejoin: round;
        stroke-width: 2px;
      }

      .cls-2 {
        fill: #000;
        fill-rule: evenodd;
      }
    </style>
  </defs>
  <g>
    <rect x="1" y="1" width="30" height="31" class="cls-1"/>
    <path d="M24.548,5.004 L21.670,5.000 C18.436,5.000 16.347,7.125 16.347,10.414 L16.347,12.910 L13.453,12.910 C13.203,12.910 13.000,13.111 13.000,13.359 L13.000,16.976 C13.000,17.224 13.203,17.425 13.453,17.425 L16.347,17.425 L16.347,26.552 C16.347,26.800 16.549,27.000 16.799,27.000 L20.575,27.000 C20.825,27.000 21.027,26.799 21.027,26.552 L21.027,17.425 L24.411,17.425 C24.661,17.425 24.863,17.224 24.863,16.976 L24.865,13.359 C24.865,13.240 24.817,13.126 24.732,13.042 C24.647,12.958 24.532,12.910 24.412,12.910 L21.028,12.910 L21.028,10.794 C21.028,9.777 21.272,9.261 22.608,9.261 L24.548,9.260 C24.797,9.260 25.000,9.059 25.000,8.811 L25.000,5.453 C25.000,5.205 24.798,5.005 24.548,5.004 Z" class="cls-2"/>
  </g>
</svg>
