<?xml version="1.0" encoding="UTF-8"?>
<!DOCTYPE svg PUBLIC "-//W3C//DTD SVG 1.1//EN" "http://www.w3.org/Graphics/SVG/1.1/DTD/svg11.dtd">
<!-- Creator: CorelDRAW X6 -->
<svg xmlns="http://www.w3.org/2000/svg" xml:space="preserve" version="1.1" style="shape-rendering:geometricPrecision; text-rendering:geometricPrecision; image-rendering:optimizeQuality; fill-rule:evenodd; clip-rule:evenodd"
viewBox="0 0 884 1546"
 xmlns:xlink="http://www.w3.org/1999/xlink">
 <defs>
  <style type="text/css">
   <![CDATA[
    .fil0 {fill:white}
   ]]>
  </style>
 </defs>
 <g id="Слой_x0020_1">
  <metadata id="CorelCorpID_0Corel-Layer"/>
  <g id="_346732560">
   <g>
    <path class="fil0" d="M442 0c-248,0 -442,201 -442,448 0,107 40,215 114,302l281 796 94 0 281 -796c73,-81 113,-188 113,-302 7,-247 -194,-448 -441,-448zm254 689l-13 20 -241 676 -241 -676 -14 -20c-60,-67 -93,-147 -93,-241 0,-194 154,-348 348,-348 194,0 348,161 348,348 0,87 -34,174 -94,241z"/>
    <path class="fil0" d="M442 254c-107,0 -194,87 -194,194 0,107 87,194 194,194 107,0 194,-87 194,-194 0,-107 -87,-194 -194,-194zm0 281c-54,0 -94,-40 -94,-93 0,-54 40,-94 94,-94 53,0 93,40 93,94 0,60 -40,93 -93,93z"/>
   </g>
  </g>
 </g>
</svg>
