<?xml version="1.0" encoding="utf-8"?>
<!-- Generator: Adobe Illustrator 22.1.0, SVG Export Plug-In . SVG Version: 6.00 Build 0)  -->
<svg version="1.1" id="Слой_1" xmlns="http://www.w3.org/2000/svg" xmlns:xlink="http://www.w3.org/1999/xlink" x="0px" y="0px"
	 viewBox="0 0 47 51" style="enable-background:new 0 0 47 51;" xml:space="preserve">
<style type="text/css">
	.st0{fill:#FFFFFF;}
</style>
<g>
	<path class="st0" d="M20.8,14.4c-3.7,0-6.6,3-6.6,6.7c0,1.6,0.6,3.2,1.7,4.5l4.2,11.9h1.4l4.2-11.9c1.1-1.2,1.7-2.8,1.7-4.5
		C27.5,17.4,24.5,14.4,20.8,14.4z M24.6,24.6l-0.2,0.3l-3.6,10.1l-3.6-10.1l-0.2-0.3c-0.9-1-1.4-2.2-1.4-3.6c0-2.9,2.3-5.2,5.2-5.2
		S26,18.2,26,21C26,22.4,25.5,23.6,24.6,24.6z"/>
	<path class="st0" d="M20.8,18.1c-1.6,0-2.9,1.3-2.9,2.9c0,1.6,1.3,2.9,2.9,2.9c1.6,0,2.9-1.3,2.9-2.9
		C23.7,19.4,22.4,18.1,20.8,18.1z M20.8,22.4c-0.8,0-1.4-0.6-1.4-1.4c0-0.8,0.6-1.4,1.4-1.4c0.8,0,1.4,0.6,1.4,1.4
		C22.2,21.8,21.6,22.4,20.8,22.4z"/>
</g>
</svg>
