<svg xmlns="http://www.w3.org/2000/svg" xmlns:xlink="http://www.w3.org/1999/xlink" preserveAspectRatio="xMidYMid" width="32" height="32" viewBox="0 0 32 32">
  <defs>
    <style>
      .cls-1 {
        fill: #000;
      }

      .cls-2 {
        fill: #fff;
        fill-rule: evenodd;
      }
    </style>
  </defs>
  <g>
    <rect x="1" y="1" width="30" height="30" rx="10" ry="10" class="cls-1"/>
    <path d="M22.000,32.000 L10.000,32.000 C4.478,32.000 0.000,27.522 0.000,22.000 L0.000,10.000 C0.000,4.478 4.478,0.000 10.000,0.000 L22.000,0.000 C27.522,0.000 32.000,4.478 32.000,10.000 L32.000,22.000 C32.000,27.522 27.522,32.000 22.000,32.000 ZM29.000,10.000 C29.000,6.140 25.860,3.000 22.000,3.000 L10.000,3.000 C6.140,3.000 3.000,6.140 3.000,10.000 L3.000,22.000 C3.000,25.860 6.140,29.000 10.000,29.000 L22.000,29.000 C25.860,29.000 29.000,25.860 29.000,22.000 L29.000,10.000 ZM24.600,8.466 C24.011,8.466 23.534,7.989 23.534,7.400 C23.534,6.811 24.011,6.334 24.600,6.334 C25.189,6.334 25.666,6.811 25.666,7.400 C25.666,7.989 25.189,8.466 24.600,8.466 ZM16.000,24.000 C11.582,24.000 8.000,20.418 8.000,16.000 C8.000,11.582 11.582,8.000 16.000,8.000 C20.418,8.000 24.000,11.582 24.000,16.000 C24.000,20.418 20.418,24.000 16.000,24.000 ZM16.000,11.000 C13.244,11.000 11.000,13.242 11.000,16.000 C11.000,18.756 13.244,21.000 16.000,21.000 C18.756,21.000 21.000,18.756 21.000,16.000 C21.000,13.242 18.756,11.000 16.000,11.000 Z" class="cls-2"/>
  </g>
</svg>
