<?xml version="1.0" encoding="utf-8"?>
<!-- Generator: Adobe Illustrator 22.1.0, SVG Export Plug-In . SVG Version: 6.00 Build 0)  -->
<svg version="1.1" id="Слой_1" xmlns="http://www.w3.org/2000/svg" xmlns:xlink="http://www.w3.org/1999/xlink" x="0px" y="0px"
	 viewBox="0 0 47 51" style="enable-background:new 0 0 47 51;" xml:space="preserve">
<style type="text/css">
	.st0{fill:#FFFFFF;}
</style>
<path class="st0" d="M23.4,14.4c-3.9,0-7.2,3.3-7.2,7.3c0,2.3,1.1,4.5,2.9,5.9l0.4,6l0.7,0.7h0.5c0.4,1.9,1.4,3.2,2.6,3.2
	c1.2,0,2.3-1.3,2.6-3.2h0.5l0.7-0.7l0.4-6c1.8-1.4,2.9-3.5,2.9-5.9C30.5,17.7,27.3,14.4,23.4,14.4z M23.4,36c-0.3,0-0.9-0.6-1.2-1.8
	h2.3C24.3,35.3,23.7,36,23.4,36z M26.5,26.5l-0.3,0.6l-0.3,5.6h-4.9l-0.3-5.6l-0.3-0.6c-1.6-1.1-2.6-2.9-2.6-4.9
	c0-3.2,2.6-5.8,5.7-5.8c3.1,0,5.7,2.6,5.7,5.8C29.1,23.6,28.1,25.5,26.5,26.5z"/>
</svg>
