<?xml version="1.0" encoding="UTF-8"?>
<!DOCTYPE svg PUBLIC "-//W3C//DTD SVG 1.1//EN" "http://www.w3.org/Graphics/SVG/1.1/DTD/svg11.dtd">
<!-- Creator: CorelDRAW X6 -->
<svg xmlns="http://www.w3.org/2000/svg" xml:space="preserve" version="1.1" style="shape-rendering:geometricPrecision; text-rendering:geometricPrecision; image-rendering:optimizeQuality; fill-rule:evenodd; clip-rule:evenodd"
viewBox="0 0 871 1417"
 xmlns:xlink="http://www.w3.org/1999/xlink">
 <defs>
  <style type="text/css">
   <![CDATA[
    .fil0 {fill:white}
   ]]>
  </style>
 </defs>
 <g id="Слой_x0020_1">
  <metadata id="CorelCorpID_0Corel-Layer"/>
  <path class="fil0" d="M442 0c-240,0 -442,202 -442,448 0,141 67,276 178,361l24 368 43 43 31 0c24,117 86,197 159,197 74,0 141,-80 160,-197l30 0 43 -43 25 -368c110,-85 178,-214 178,-361 6,-246 -190,-448 -429,-448zm0 1325c-19,0 -56,-37 -74,-111l141 0c-12,68 -49,111 -67,111zm190 -583l-19 37 -18 343 -301 0 -18 -343 -18 -37c-99,-67 -160,-178 -160,-300 0,-197 160,-356 350,-356 190,0 349,159 349,356 -6,122 -67,239 -165,300z"/>
 </g>
</svg>
