<?xml version="1.0" encoding="utf-8"?>
<!-- Generator: Adobe Illustrator 19.0.0, SVG Export Plug-In . SVG Version: 6.00 Build 0)  -->
<svg version="1.1" id="Слой_1" xmlns="http://www.w3.org/2000/svg" xmlns:xlink="http://www.w3.org/1999/xlink" x="0px" y="0px"
	 viewBox="0 0 123.7 79.2" style="enable-background:new 0 0 123.7 79.2;" xml:space="preserve">
<style type="text/css">
	.st0{clip-path:url(#SVGID_2_);fill:#AF4D7C;}
</style>
<g>
	<defs>
		<rect id="SVGID_1_" y="0" width="123.7" height="79.2"/>
	</defs>
	<clipPath id="SVGID_2_">
		<use xlink:href="#SVGID_1_"  style="overflow:visible;"/>
	</clipPath>
	<path class="st0" d="M63.2,54.8c0,1.9,1,3,2.7,3c0.6,0,1.2-0.2,1.6-0.6l0.1,0.4h0.9v-3.3h-2.8v1.1h1.6c0,0.4-0.2,0.7-0.5,0.9
		c-0.3,0.2-0.7,0.3-0.9,0.3c-0.4,0-1.5,0-1.5-1.9c0-1.1,0.6-1.8,1.5-1.8c0.7,0,1.2,0.3,1.3,0.9l0,0.2h1.2l0-0.3
		c-0.2-1.3-1.4-1.9-2.5-1.9C64.2,51.8,63.2,53.3,63.2,54.8 M59.1,52h-1.2v5.7h1.2V54l2.3,3.6h1.2V52h-1.2v3.6L59.1,52z M56.8,52
		h-1.2v5.7h1.2V52z M55.1,52h-4.8v1.1h1.8v4.6h1.2v-4.6h1.8V52z M39,54.8c0,1.9,1,3,2.7,3c0.6,0,1.2-0.2,1.6-0.6l0.1,0.4h0.9v-3.3
		h-2.8v1.1h1.6c0,0.4-0.2,0.7-0.5,0.9c-0.3,0.2-0.7,0.3-0.9,0.3c-0.4,0-1.5,0-1.5-1.9c0-1.1,0.6-1.8,1.5-1.8c0.7,0,1.2,0.3,1.3,0.9
		l0,0.2h1.2l0-0.3c-0.2-1.3-1.4-1.9-2.5-1.9C39.9,51.8,39,53.3,39,54.8 M38.2,52H37v5.7h1.2V52z M33.7,52h-1.2v5.7h3.9v-1.1h-2.7V52
		z M25.4,52h-1.2v5.7h1.2V54l2.3,3.6h1.2V52h-1.2v3.6L25.4,52z M18,54.8c0,1.9,1,3,2.7,3c0.6,0,1.2-0.2,1.6-0.6l0.1,0.4h0.9v-3.3
		h-2.8v1.1h1.6c0,0.4-0.2,0.7-0.5,0.9c-0.3,0.2-0.7,0.3-0.9,0.3c-0.4,0-1.5,0-1.5-1.9c0-1.1,0.6-1.8,1.5-1.8c0.7,0,1.2,0.3,1.3,0.9
		l0,0.2h1.2l0-0.3c-0.2-1.3-1.4-1.9-2.5-1.9C19,51.8,18,53.3,18,54.8 M17.2,52H16v5.7h1.2V52z M10.8,55.5l-0.3,0.1v0.3
		c0,0.9,0.6,2,2.3,2c1.5,0,2.4-0.7,2.4-1.8c0-1.1-0.9-1.5-1.6-1.6l-1-0.3c-0.7-0.2-0.7-0.4-0.7-0.5c0-0.2,0-0.7,1-0.7
		c0.6,0,1,0.3,1,0.8l0,0.2H15v-0.3c0-1.2-0.9-1.9-2.2-1.9c-1.6,0-2.1,1-2.1,1.8c0,1.1,0.9,1.4,1.5,1.6l0.9,0.2
		c0.8,0.2,0.8,0.4,0.8,0.6c0,0.6-0.9,0.6-1.1,0.6c-0.5,0-1.1-0.3-1.1-1v-0.3H10.8z M9.8,52H5.5v5.7h4.4v-1.1H6.7v-1.3h2.9v-1.1H6.7
		v-1.1h3.1V52z M1.2,53.1H2c0.5,0,0.8,0.1,1,0.3c0.3,0.3,0.5,0.8,0.5,1.4c0,1.1-0.5,1.8-1.3,1.8H1.2V53.1z M2,52H0v5.7h2.3
		c1.8,0,2.5-1.6,2.5-2.9c0-1.2-0.5-2.1-1.3-2.5C3,52,2.5,52,2,52 M26.1,27.6C26.1,38.8,17.7,44,12,44H5.4V11.8H12
		C20.6,11.8,26.1,18,26.1,27.6 M29.6,27.8c0-12.8-9.2-17.4-17.7-17.4H0.1v1.3h2.1v32.2H0v1.2l0.2,0c0,0,4.7,0.1,11.3,0.1
		C18.5,45.2,29.6,40.5,29.6,27.8 M42.7,32c0,1.1-0.7,1.2-0.7,1.2h-7.1v1.1h11.2V34c0-3.6-1.9-7.4-7.1-7.4c-3.3,0-9,2.1-9,9.7
		c0,8.2,6.8,9.1,9.7,9.1c4.2,0,6.3-1.7,6.4-1.8l0.2-0.2l-0.7-0.8l-0.2,0.1c0,0-2.3,1.5-5.1,1.5c-3.3,0-7.1-1.5-7.1-8.5
		c0-6.1,2.9-8.3,5.7-8.3C42,27.6,42.7,30.8,42.7,32 M48.7,54.1h-2.3V52h-1.2v5.7h1.2v-2.4h2.3v2.4h1.2V52h-1.2V54.1z M68.1,46.5h1.2
		v-8.8h-1.2v0.3c0,2.4-0.5,6-2.4,6H53.6V1.2h2.1V0h-7.4l-0.1,1.3h2.3v42.6h-2.2v1.2h18.2c0.7,0,1.6,0.4,1.6,1.1V46.5z M76.2,22.6
		c0-1.1-1-2-2.1-2c-1.2,0-2.1,0.9-2.1,2c0,1.1,1,2,2.1,2C75.2,24.6,76.2,23.7,76.2,22.6 M70.6,45.1h7.1V44h-2.2V26.4l-5.1,2.7
		l0.5,0.9l0.2-0.2c0,0,0.3-0.2,1.1-0.2c0.1,0,0.2,0,0.3,0.1c0.3,0.3,0.3,1.1,0.3,1.4V44h-2.2V45.1z M91.6,33.4c0,3.5-2.1,6-5,6
		c-2.9,0-5-2.4-5-6c0-3.4,2.2-6,5-6C89.5,27.4,91.6,29.9,91.6,33.4 M94.6,33.4c0-3.7-3.1-6.5-7.3-6.7v-7.2c0-0.4,0.7-0.8,1-0.8
		c0.2,0,0.3,0.1,0.5,0.3c0.3,0.2,0.7,0.5,1.2,0.5c1.5,0,2.2-1.3,2.2-2.4c0-1.1-1-2.3-2.8-2.3c-1.8,0-3.4,2.3-3.4,4.1v7.9
		c-4.2,0.3-7.4,3.3-7.4,7c0,3.3,2.3,5.8,5.8,6.4l-0.8,1.6c0,0-0.3,0.6-0.3,1c0,1.1,0.5,1.7,1.8,2c0.7,0.2,1.4,0.3,2.2,0.5
		c2.1,0.5,4.3,1,6.1,1.9c2.8,1.4,7.6,6,7.6,14.2C101,72.8,93,78,85.5,78c-9.1,0-14.7-6.9-14.7-13.4c0-6.1,3.7-9.2,5.2-9.2
		c0.8,0,1.2,0.7,1.6,1.4c0.4,0.7,0.9,1.5,1.8,1.5c1.6,0,2.7-1,2.7-2.4c0-1.5-1.2-3-3.3-3c-1.9,0-5.5,1-6.9,3.8
		c-0.1,0.1-2.4,2.6-2.4,7.7c0,5.8,4.3,14.9,16,14.9c12.6,0,18.5-10.9,18.5-18.3c0-7.8-4.8-13.8-12.7-16.1c-0.6-0.2-1.4-0.3-2.3-0.5
		c-1.5-0.3-4.3-0.8-4.3-1.4c0-0.7,0.7-2.1,1-2.7c0.2,0,0.3,0,0.5,0C91,40.2,94.6,37.3,94.6,33.4 M114.8,50.7c-0.9,0-2.1-0.8-2.1-1.7
		c0-0.8,0-4.5-0.1-8.3c0-3.8-0.1-7.5-0.1-8.3c0-3.5-1.9-5.8-4.7-5.8c-3.2,0-5.9,1.9-6.9,2.7V3.1l-5.3,2.6l0.2,1l0.3-0.1
		c0.4-0.1,1.2-0.4,1.4-0.4C97.7,6.2,98,7,98,8.3v35.5h-2.1v1.3h7.2v-1.4H101V30.6c1.1-0.9,3.6-2.7,6-2.7c1.6,0,2.8,1.4,2.8,3.2
		c0,0.9,0,3.9,0,7.1c0,3.4,0,7,0,8.2c0,2.7,1.6,5.4,5.1,5.4h0.3v-0.3c0-0.2,0-0.3,0-0.4c0-0.1,0-0.1,0-0.2v-0.3H114.8z M123.7,28.1
		v-1.3h-3.3v-6.7l-2.9,1.7v4.9h-2.9v1.4h2.9c0,1.7,0.1,11.8,0.1,13.8c0,2.2,0.8,3.5,2.2,3.5c1.8,0,3.2-1.4,3.7-1.9l0.1-0.1l-0.1-0.1
		c-0.1-0.2-0.1-0.3-0.4-0.5l-0.2-0.2l-0.2,0.2c-0.8,0.8-1.2,0.9-1.5,0.9c-0.1,0-0.4,0-0.5-0.4c-0.2-0.4-0.2-0.9-0.2-1.7V28.1H123.7z
		"/>
</g>
</svg>
