<?xml version="1.0" encoding="utf-8"?>
<!-- Generator: Adobe Illustrator 22.1.0, SVG Export Plug-In . SVG Version: 6.00 Build 0)  -->
<svg version="1.1" id="Слой_1" xmlns="http://www.w3.org/2000/svg" xmlns:xlink="http://www.w3.org/1999/xlink" x="0px" y="0px"
	 viewBox="0 0 47 51" style="enable-background:new 0 0 47 51;" xml:space="preserve">
<style type="text/css">
	.st0{fill:#FFFFFF;}
</style>
<path class="st0" d="M21.1,28.1c3.9,0,11.1,0,11.1-6.8c0-6.3-5.9-6.8-11.5-6.8c-0.1,0-0.1,0-0.2,0c-0.1,0-0.1,0-0.2,0
	c-0.4,0-0.7,0.3-0.7,0.7v16.5H16c-0.4,0-0.7,0.3-0.7,0.7c0,0.4,0.3,0.7,0.7,0.7h3.6v2.7H16c-0.4,0-0.7,0.3-0.7,0.7s0.3,0.7,0.7,0.7
	h3.8c0.1,0.1,0.3,0.2,0.5,0.2s0.4-0.1,0.5-0.2h3.8c0.4,0,0.7-0.3,0.7-0.7s-0.3-0.7-0.7-0.7H21v-2.7h3.6c0.4,0,0.7-0.3,0.7-0.7
	c0-0.4-0.3-0.7-0.7-0.7H21L21.1,28.1C21.1,28.1,21.1,28.1,21.1,28.1z M30.7,21.3c0,4.5-3.5,5.4-9.7,5.4c0,0,0,0,0,0V15.9
	C27.2,15.9,30.7,16.9,30.7,21.3z"/>
</svg>
