<?xml version="1.0" encoding="UTF-8"?>
<!DOCTYPE svg PUBLIC "-//W3C//DTD SVG 1.1//EN" "http://www.w3.org/Graphics/SVG/1.1/DTD/svg11.dtd">
<!-- Creator: CorelDRAW X6 -->
<svg xmlns="http://www.w3.org/2000/svg" xml:space="preserve" version="1.1" style="shape-rendering:geometricPrecision; text-rendering:geometricPrecision; image-rendering:optimizeQuality; fill-rule:evenodd; clip-rule:evenodd"
viewBox="0 0 1262 1710"
 xmlns:xlink="http://www.w3.org/1999/xlink">
 <defs>
  <style type="text/css">
   <![CDATA[
    .fil0 {fill:white}
   ]]>
  </style>
 </defs>
 <g id="Слой_x0020_1">
  <metadata id="CorelCorpID_0Corel-Layer"/>
  <path class="fil0" d="M433 1015c291,0 829,0 829,-507 0,-471 -441,-508 -859,-508 -7,0 -7,0 -15,0 -7,0 -7,0 -15,0 -30,0 -52,22 -52,52l0 1232 -269 0c-30,0 -52,23 -52,53 0,29 22,52 52,52l269 0 0 201 -269 0c-30,0 -52,23 -52,53 0,30 22,52 52,52l284 0c7,7 22,15 37,15 15,0 30,-8 38,-15l283 0c30,0 53,-22 53,-52 0,-30 -23,-53 -53,-53l-268 0 0 -201 268 0c30,0 53,-23 53,-52 0,-30 -23,-53 -53,-53l-268 0 7 -269 0 0zm717 -507c0,336 -261,403 -724,403l0 0 0 -806c463,0 724,74 724,403z"/>
 </g>
</svg>
