<?xml version="1.0" encoding="UTF-8"?>
<!DOCTYPE svg PUBLIC "-//W3C//DTD SVG 1.1//EN" "http://www.w3.org/Graphics/SVG/1.1/DTD/svg11.dtd">
<!-- Creator: CorelDRAW X6 -->
<svg xmlns="http://www.w3.org/2000/svg" xml:space="preserve" version="1.1" style="shape-rendering:geometricPrecision; text-rendering:geometricPrecision; image-rendering:optimizeQuality; fill-rule:evenodd; clip-rule:evenodd"
viewBox="0 0 15200 8735"
 xmlns:xlink="http://www.w3.org/1999/xlink">
 <defs>
  <style type="text/css">
   <![CDATA[
    .fil0 {fill:white}
   ]]>
  </style>
 </defs>
 <g id="Слой_x0020_1">
  <metadata id="CorelCorpID_0Corel-Layer"/>
  <path class="fil0" d="M11749 1660c-262,-175 -568,-219 -830,-219l-131 -742c0,-306 -218,-699 -742,-699l-9303 0c-306,0 -743,218 -743,743l0 5765c0,306 218,742 743,742l1485 0c174,830 917,1485 1834,1485 917,0 1660,-655 1834,-1485l2315 0 0 0c175,830 917,1485 1835,1485 917,0 1659,-655 1834,-1485l2533 0 219 -87c43,-44 568,-568 568,-1660 -44,-1266 -2839,-3538 -3451,-3843zm-7687 6377c-655,0 -1179,-525 -1179,-1180 0,-655 524,-1179 1179,-1179 655,0 1179,524 1179,1179 0,655 -524,1180 -1179,1180zm5984 0c-655,0 -1180,-525 -1180,-1180 0,-655 525,-1179 1180,-1179 655,0 1179,524 1179,1179 0,655 -524,1180 -1179,1180zm4193 -1485l-2359 0c-131,-874 -917,-1573 -1834,-1573 -918,0 -1704,699 -1835,1573l-2315 0c-131,-874 -917,-1573 -1834,-1573 -917,0 -1703,699 -1834,1573l-1485 0c-44,0 -88,0 -88,-88l0 -5721c0,-44 0,-88 88,-88l9346 0c44,0 88,0 88,88l174 1091 306 262c306,0 568,44 786,175 743,393 3058,2490 3058,3232 0,524 -175,874 -262,1049z"/>
 </g>
</svg>
