<?xml version="1.0" encoding="utf-8"?>
<!-- Generator: Adobe Illustrator 22.1.0, SVG Export Plug-In . SVG Version: 6.00 Build 0)  -->
<svg version="1.1" id="Слой_1" xmlns="http://www.w3.org/2000/svg" xmlns:xlink="http://www.w3.org/1999/xlink" x="0px" y="0px"
	 viewBox="0 0 47 51" style="enable-background:new 0 0 47 51;" xml:space="preserve">
<style type="text/css">
	.st0{fill:#FFFFFF;}
</style>
<path class="st0" d="M32.6,19.5C32,19.1,31.3,19,30.7,19l-0.3-1.7c0-0.7-0.5-1.6-1.7-1.6H7.4c-0.7,0-1.7,0.5-1.7,1.7v13.2
	c0,0.7,0.5,1.7,1.7,1.7h3.4c0.4,1.9,2.1,3.4,4.2,3.4c2.1,0,3.8-1.5,4.2-3.4h5.3c0,0,0,0,0,0c0.4,1.9,2.1,3.4,4.2,3.4
	c2.1,0,3.8-1.5,4.2-3.4h5.8l0.5-0.2c0.1-0.1,1.3-1.3,1.3-3.8C40.4,25.4,34,20.2,32.6,19.5z M15,34.1c-1.5,0-2.7-1.2-2.7-2.7
	s1.2-2.7,2.7-2.7s2.7,1.2,2.7,2.7S16.5,34.1,15,34.1z M28.7,34.1c-1.5,0-2.7-1.2-2.7-2.7s1.2-2.7,2.7-2.7s2.7,1.2,2.7,2.7
	S30.2,34.1,28.7,34.1z M38.3,30.7h-5.4c-0.3-2-2.1-3.6-4.2-3.6c-2.1,0-3.9,1.6-4.2,3.6h-5.3c-0.3-2-2.1-3.6-4.2-3.6
	c-2.1,0-3.9,1.6-4.2,3.6H7.4c-0.1,0-0.2,0-0.2-0.2V17.4c0-0.1,0-0.2,0.2-0.2h21.4c0.1,0,0.2,0,0.2,0.2l0.4,2.5l0.7,0.6
	c0.7,0,1.3,0.1,1.8,0.4c1.7,0.9,7,5.7,7,7.4C38.9,29.5,38.5,30.3,38.3,30.7z"/>
</svg>
