<svg xmlns="http://www.w3.org/2000/svg" xmlns:xlink="http://www.w3.org/1999/xlink" preserveAspectRatio="xMidYMid" width="32" height="33" viewBox="0 0 32 33">
  <defs>
    <style>
      .cls-1 {
        fill: #000;
        stroke: #fff;
        stroke-linejoin: round;
        stroke-width: 2px;
      }

      .cls-2 {
        fill: #fff;
        fill-rule: evenodd;
      }
    </style>
  </defs>
  <g>
    <rect x="1" y="1" width="30" height="31" class="cls-1"/>
    <path d="M24.893,19.936 C24.869,19.885 24.846,19.844 24.825,19.810 C24.478,19.207 23.815,18.468 22.836,17.591 L22.816,17.571 L22.805,17.561 L22.795,17.551 L22.784,17.551 C22.340,17.142 22.059,16.868 21.941,16.727 C21.726,16.459 21.677,16.188 21.795,15.914 C21.878,15.706 22.191,15.268 22.732,14.598 C23.017,14.244 23.242,13.959 23.409,13.745 C24.610,12.205 25.130,11.221 24.971,10.793 L24.909,10.693 C24.867,10.632 24.759,10.577 24.586,10.527 C24.412,10.477 24.190,10.468 23.920,10.502 L20.921,10.522 C20.872,10.505 20.803,10.507 20.713,10.527 C20.622,10.547 20.577,10.557 20.577,10.557 L20.525,10.582 L20.484,10.612 C20.449,10.632 20.411,10.668 20.369,10.718 C20.328,10.768 20.293,10.827 20.265,10.893 C19.939,11.704 19.568,12.457 19.151,13.153 C18.894,13.568 18.658,13.928 18.443,14.232 C18.228,14.537 18.047,14.761 17.902,14.905 C17.756,15.049 17.624,15.164 17.506,15.251 C17.388,15.339 17.298,15.375 17.235,15.362 C17.173,15.348 17.114,15.335 17.058,15.322 C16.961,15.261 16.883,15.179 16.824,15.076 C16.765,14.972 16.725,14.841 16.704,14.684 C16.683,14.527 16.671,14.391 16.668,14.277 C16.665,14.164 16.666,14.003 16.673,13.795 C16.680,13.588 16.683,13.447 16.683,13.374 C16.683,13.119 16.689,12.843 16.699,12.545 C16.709,12.247 16.718,12.011 16.725,11.837 C16.732,11.663 16.735,11.479 16.735,11.285 C16.735,11.091 16.723,10.938 16.699,10.828 C16.675,10.718 16.638,10.611 16.590,10.507 C16.541,10.403 16.470,10.323 16.376,10.266 C16.283,10.209 16.166,10.164 16.028,10.130 C15.660,10.050 15.191,10.006 14.622,10.000 C13.331,9.986 12.501,10.067 12.133,10.241 C11.988,10.314 11.856,10.415 11.738,10.542 C11.613,10.689 11.595,10.769 11.686,10.783 C12.102,10.843 12.397,10.987 12.571,11.215 L12.633,11.335 C12.682,11.422 12.730,11.576 12.779,11.797 C12.828,12.018 12.859,12.262 12.873,12.530 C12.907,13.019 12.907,13.437 12.873,13.785 C12.838,14.133 12.805,14.404 12.774,14.599 C12.742,14.793 12.696,14.950 12.633,15.071 C12.571,15.191 12.529,15.265 12.508,15.291 C12.487,15.318 12.470,15.335 12.456,15.342 C12.366,15.375 12.272,15.392 12.175,15.392 C12.078,15.392 11.960,15.345 11.821,15.251 C11.682,15.157 11.538,15.029 11.389,14.865 C11.240,14.701 11.071,14.471 10.884,14.177 C10.697,13.882 10.502,13.534 10.301,13.132 L10.134,12.841 C10.030,12.654 9.888,12.381 9.708,12.023 C9.527,11.665 9.367,11.318 9.229,10.983 C9.173,10.843 9.090,10.736 8.979,10.662 L8.927,10.632 C8.892,10.605 8.836,10.577 8.760,10.547 C8.684,10.516 8.604,10.495 8.521,10.481 L5.668,10.501 C5.376,10.501 5.178,10.565 5.074,10.692 L5.033,10.752 C5.012,10.786 5.001,10.839 5.001,10.913 C5.001,10.987 5.022,11.077 5.064,11.184 C5.480,12.128 5.933,13.039 6.422,13.916 C6.912,14.792 7.337,15.499 7.698,16.034 C8.059,16.570 8.427,17.075 8.801,17.550 C9.176,18.026 9.424,18.330 9.546,18.464 C9.667,18.598 9.763,18.698 9.832,18.765 L10.093,19.006 C10.259,19.167 10.504,19.360 10.827,19.584 C11.149,19.808 11.507,20.029 11.899,20.247 C12.291,20.464 12.748,20.641 13.268,20.779 C13.789,20.916 14.296,20.971 14.788,20.945 L15.986,20.945 C16.229,20.924 16.413,20.851 16.538,20.724 L16.579,20.673 C16.607,20.633 16.633,20.571 16.657,20.488 C16.681,20.404 16.694,20.312 16.694,20.212 C16.686,19.924 16.709,19.664 16.761,19.433 C16.813,19.203 16.872,19.029 16.938,18.911 C17.004,18.794 17.079,18.695 17.162,18.615 C17.245,18.535 17.305,18.486 17.339,18.470 C17.374,18.453 17.402,18.441 17.422,18.435 C17.589,18.381 17.785,18.433 18.011,18.590 C18.237,18.747 18.448,18.942 18.646,19.173 C18.844,19.404 19.082,19.663 19.359,19.951 C19.637,20.239 19.880,20.453 20.088,20.593 L20.296,20.714 C20.435,20.794 20.616,20.868 20.838,20.935 C21.060,21.002 21.254,21.019 21.421,20.985 L24.086,20.945 C24.350,20.945 24.555,20.903 24.700,20.819 C24.846,20.736 24.933,20.644 24.961,20.543 C24.989,20.443 24.990,20.329 24.966,20.202 C24.941,20.075 24.917,19.986 24.893,19.936 Z" class="cls-2"/>
  </g>
</svg>
